<svg xmlns="http://www.w3.org/2000/svg" viewBox="0 0 24 24" fill="none" stroke="#863bff" stroke-width="2" stroke-linecap="round" stroke-linejoin="round">
  <path d="M14 2H6a2 2 0 0 0-2 2v16a2 2 0 0 0 2 2h12a2 2 0 0 0 2-2V8z"></path>
  <polyline points="14 2 14 8 20 8"></polyline>
  <line x1="16" y1="13" x2="8" y2="13"></line>
  <line x1="16" y1="17" x2="8" y2="17"></line>
  <polyline points="10 9 9 9 8 9"></polyline>
  <path d="M19 13l-2 2 2 2" stroke="#47bfff" stroke-width="1.5"></path>
  <path d="M21 15h-4" stroke="#47bfff" stroke-width="1.5"></path>
  <circle cx="19" cy="15" r="3" stroke="#47bfff" stroke-width="1"></circle>
  <path d="M22 12l-1 1" stroke="#47bfff"></path>
  <path d="M22 18l-1-1" stroke="#47bfff"></path>
</svg>